<?xml version="1.0" encoding="iso-8859-1"?>
<!-- Generator: Adobe Illustrator 18.1.1, SVG Export Plug-In . SVG Version: 6.00 Build 0)  -->
<svg version="1.1" id="Capa_1" xmlns="http://www.w3.org/2000/svg" xmlns:xlink="http://www.w3.org/1999/xlink" x="0px" y="0px"
	 viewBox="0 0 280.066 280.066" style="enable-background:new 0 0 280.066 280.066;" xml:space="preserve">
<path color-rendering="auto" image-rendering="auto" shape-rendering="auto" color-interpolation="sRGB" d="M255.001,54.997
	c-2.761,0-5,2.239-5,5v10c-0.039,2.761,2.168,5.032,4.929,5.071c2.761,0.039,5.032-2.168,5.071-4.929
	c0.001-0.047,0.001-0.094,0-0.141v-5h10v11.91l-17.236,8.619c-1.723,0.825-2.825,2.56-2.84,4.471v10c0,2.762,2.239,5,5.001,5
	c0.023,0,0.047,0,0.07,0h20c2.761,0.039,5.032-2.168,5.071-4.929s-2.168-5.032-4.929-5.071c-0.047-0.001-0.094-0.001-0.141,0
	h-15.072v-1.869l17.316-8.658c1.694-0.847,2.764-2.579,2.764-4.473v-20c0-2.761-2.239-5-5-5h-20H255.001z M4.924,114.927
	c-2.759,0.042-4.963,2.311-4.924,5.07v100c-0.037,2.761,2.171,5.03,4.932,5.068c0.023,0,0.045,0,0.068,0v0.002h0.076H35
	c6.762,0.096,6.762-10.096,0-10H10v-40.07h15c6.762,0.096,6.762-10.096,0-10H10v-40.07h25c6.762,0.096,6.762-10.096,0-10H5v0.002
	C4.975,114.928,4.95,114.927,4.924,114.927L4.924,114.927z M104.924,114.927c-2.759,0.042-4.963,2.311-4.924,5.07v100
	c-0.039,2.761,2.168,5.032,4.929,5.071s5.032-2.168,5.071-4.929c0.001-0.047,0.001-0.094,0-0.141v-95.07h2.127l28.586,47.645
	c1.392,2.385,4.454,3.19,6.839,1.798c0.944-0.551,1.682-1.397,2.1-2.407l28.221-47.035h2.127v95c-0.096,6.762,10.096,6.762,10,0
	v-100c0-2.761-2.239-5-5-5h-10v0.02c-1.764,0.013-3.397,0.947-4.287,2.479l-25.713,42.856l-25.713-42.855
	c-0.856-1.472-2.401-2.407-4.102-2.482c-0.062,0-0.124,0-0.186,0.002v-0.018h-10v0.002
	C104.975,114.928,104.95,114.928,104.924,114.927L104.924,114.927z M204.924,114.927c-2.759,0.042-4.963,2.311-4.924,5.07v100
	c-0.037,2.761,2.171,5.03,4.932,5.068c0.023,0,0.045,0,0.068,0v0.002h40c6.762,0.096,6.762-10.096,0-10h-35v-90.141h35
	c6.762,0.096,6.762-10.096,0-10h-40v0.002C204.975,114.928,204.95,114.927,204.924,114.927L204.924,114.927z M55.001,154.997
	c-2.761-0.039-5.032,2.168-5.071,4.929c-0.039,2.761,2.168,5.032,4.929,5.071c0.047,0.001,0.094,0.001,0.141,0h20
	c2.761,0.039,5.032-2.168,5.071-4.929s-2.168-5.032-4.929-5.071c-0.047-0.001-0.094-0.001-0.141,0H55.001z M55.001,174.997
	c-2.761-0.039-5.032,2.168-5.071,4.929c-0.039,2.761,2.168,5.032,4.929,5.071c0.047,0.001,0.094,0.001,0.141,0h20
	c2.761,0.039,5.032-2.168,5.071-4.929s-2.168-5.032-4.929-5.071c-0.047-0.001-0.094-0.001-0.141,0H55.001z"/>
<g>
</g>
<g>
</g>
<g>
</g>
<g>
</g>
<g>
</g>
<g>
</g>
<g>
</g>
<g>
</g>
<g>
</g>
<g>
</g>
<g>
</g>
<g>
</g>
<g>
</g>
<g>
</g>
<g>
</g>
</svg>
